<?xml version="1.0" encoding="utf-8"?>
<!-- Generator: Adobe Illustrator 17.1.0, SVG Export Plug-In . SVG Version: 6.00 Build 0)  -->
<!DOCTYPE svg PUBLIC "-//W3C//DTD SVG 1.1//EN" "http://www.w3.org/Graphics/SVG/1.1/DTD/svg11.dtd">
<svg version="1.1" id="Layer_1" xmlns="http://www.w3.org/2000/svg" xmlns:xlink="http://www.w3.org/1999/xlink" x="0px" y="0px"
	 width="1000px" height="1000px" viewBox="0 0 1000 1000" enable-background="new 0 0 1000 1000" xml:space="preserve">
<g>
	<path d="M717.165,62.747c-2.582-20.522-20.122-37.158-39.177-37.158H540.772c0.002,0.057,0.01,0.113,0.011,0.17l3.608,175.708
		c0.104,5.087-4.074,9.211-9.334,9.211H462.16c-5.259,0-9.399-4.124-9.246-9.211l5.286-175.708c0.002-0.057,0.01-0.113,0.013-0.17
		H323.735c-19.055,0-36.726,16.636-39.469,37.158L168.721,927.123c-2.743,20.522,19.369,37.158,49.39,37.158h212.323
		c-0.274-0.76-0.424-1.553-0.399-2.376l5.526-183.663c0.153-5.087,5.852-9.211,12.728-9.211h95.306
		c6.876,0,12.535,4.124,12.64,9.211l3.771,183.663c0.017,0.823-0.14,1.617-0.422,2.376h216.636
		c30.021,0,52.264-16.637,49.683-37.158L717.165,62.747z M450.61,278.057c0.153-5.087,4.677-9.211,10.105-9.211h75.231
		c5.428,0,9.913,4.124,10.017,9.211l3.608,175.708c0.104,5.087-4.667,9.211-10.657,9.211h-83.023c-5.99,0-10.722-4.124-10.569-9.211
		L450.61,278.057z M542.74,713.069h-93.06c-6.714,0-12.033-4.124-11.88-9.211l5.286-175.708c0.153-5.087,5.264-9.211,11.417-9.211
		h85.269c6.152,0,11.224,4.124,11.328,9.211l3.608,175.708C554.812,708.945,549.454,713.069,542.74,713.069z"/>
</g>
</svg>
