<?xml version="1.0" encoding="utf-8"?>
<!-- Generator: Adobe Illustrator 16.0.0, SVG Export Plug-In . SVG Version: 6.00 Build 0)  -->
<!DOCTYPE svg PUBLIC "-//W3C//DTD SVG 1.1//EN" "http://www.w3.org/Graphics/SVG/1.1/DTD/svg11.dtd">
<svg version="1.1" id="Layer_1" xmlns="http://www.w3.org/2000/svg" xmlns:xlink="http://www.w3.org/1999/xlink" x="0px" y="0px"
	 width="100px" height="100px" viewBox="0 0 100 100" enable-background="new 0 0 100 100" xml:space="preserve">
<path d="M76.329,47.605l-33.496-33.21c-1.855-1.55-4.208-2.403-6.625-2.403c-1.472,0-2.87,0.313-4.139,0.87
	c-0.028-0.038-0.044-0.084-0.079-0.118l-3.909-3.909c-0.879-0.877-2.262-1.061-3.365-0.566l-2.561-2.561
	c-0.391-0.391-1.023-0.391-1.414,0s-0.391,1.023,0,1.414l2.552,2.552c-0.52,1.105-0.336,2.463,0.576,3.374l3.666,3.667
	c-1.055,1.62-1.674,3.55-1.674,5.623c0,3.394,1.85,6.462,5.497,9.119c3.115,2.271,10.189,9.886,12.705,12.631
	c-9.836,4.915-16.208,14.854-16.575,25.853h-4.57c-0.552,0-1,0.447-1,1s0.448,1,1,1h5.535h1.218
	c1.707,1.094,3.402,2.094,5.059,2.974c-0.861,0.449-1.833,0.933-2.961,1.475c-0.363,0.175-0.586,0.55-0.565,0.952
	c0.02,0.402,0.28,0.753,0.659,0.89c1.937,0.699,3.835,1.295,5.666,1.777c-0.682,0.72-1.398,1.451-2.127,2.194
	c-0.27,0.273-0.358,0.679-0.227,1.04c0.131,0.362,0.458,0.616,0.84,0.655c1.754,0.177,3.483,0.283,5.156,0.318
	c-0.429,0.78-0.911,1.611-1.454,2.509c-0.2,0.332-0.191,0.749,0.023,1.071c0.214,0.322,0.59,0.49,0.979,0.436
	c1.447-0.215,2.863-0.468,4.229-0.754c-0.333,0.857-0.718,1.74-1.152,2.639c-0.178,0.369-0.113,0.81,0.164,1.111
	c0.277,0.303,0.711,0.404,1.092,0.259c1.246-0.474,2.449-0.962,3.597-1.458c-0.278,0.929-0.62,1.897-1.032,2.925
	c-0.16,0.398-0.047,0.854,0.279,1.133c0.326,0.278,0.794,0.316,1.163,0.098c1.255-0.75,2.452-1.505,3.578-2.255
	c-0.174,1.046-0.411,2.162-0.712,3.37c-0.105,0.422,0.074,0.864,0.444,1.093c0.37,0.23,0.847,0.192,1.176-0.091
	c1.33-1.14,2.59-2.29,3.764-3.437c0.046,1.104,0.054,2.294,0.025,3.593c-0.01,0.429,0.255,0.816,0.659,0.963
	c0.111,0.04,0.227,0.06,0.34,0.06c0.299,0,0.589-0.134,0.783-0.378c1.264-1.589,2.429-3.176,3.479-4.735
	c0.33,0.98,0.665,2.066,1.014,3.28c0.114,0.397,0.461,0.684,0.873,0.72c0.412,0.041,0.804-0.184,0.986-0.555
	c0.924-1.881,1.743-3.74,2.444-5.551c0.646,0.842,1.282,1.704,1.89,2.535c0.232,0.316,0.629,0.472,1.011,0.389
	c0.384-0.08,0.686-0.377,0.772-0.761c0.416-1.861,0.747-3.69,0.988-5.459c0.699,0.495,1.477,1.063,2.392,1.747
	c0.179,0.134,0.381,0.204,0.609,0.199c0.53,0.008,1.01-0.444,1.01-1c0-0.079-0.009-0.155-0.026-0.229
	c-0.046-1.511-0.142-3.003-0.284-4.457c0.829,0.378,1.689,0.806,2.573,1.277c0.151,0.08,0.314,0.108,0.481,0.118
	c0.586,0.012,1.01-0.444,1.01-1c0-0.16-0.038-0.312-0.104-0.445c-0.337-1.245-0.696-2.459-1.072-3.63
	c0.886,0.313,1.802,0.687,2.765,1.128c0.137,0.063,0.279,0.069,0.428,0.091c0.58-0.002,1.009-0.444,1.009-1
	c0-0.226-0.075-0.434-0.201-0.601c-0.573-1.171-1.151-2.294-1.727-3.358c0.994,0.251,2.045,0.569,3.172,0.96
	c0.112,0.039,0.226,0.058,0.34,0.055c0.539-0.039,1.007-0.445,1.007-1c0-0.281-0.116-0.536-0.304-0.718
	c-0.786-1.099-1.587-2.145-2.392-3.162h3.219h5.533c0.552,0,1-0.447,1-1s-0.448-1-1-1h-4.561
	C87.161,61.222,83.152,53.129,76.329,47.605z M25.283,10.251c0.186-0.186,0.431-0.287,0.693-0.287s0.507,0.102,0.692,0.286
	l3.201,3.201l-1.385,1.385l-3.201-3.202C24.903,11.253,24.903,10.632,25.283,10.251z M82.317,73.969
	c-0.93-0.246-1.815-0.44-2.669-0.584c-0.388-0.063-0.768,0.099-0.988,0.417c-0.221,0.319-0.237,0.736-0.042,1.071
	c0.535,0.922,1.075,1.902,1.615,2.935c-0.814-0.301-1.605-0.555-2.385-0.766c-0.355-0.093-0.741,0.015-0.994,0.285
	c-0.253,0.272-0.333,0.662-0.21,1.013c0.378,1.075,0.743,2.199,1.089,3.36c-0.783-0.373-1.543-0.707-2.275-0.999
	c-0.33-0.131-0.703-0.079-0.983,0.138s-0.425,0.565-0.38,0.917c0.169,1.333,0.295,2.709,0.378,4.11
	c-0.795-0.575-1.487-1.058-2.139-1.494c-0.291-0.195-0.663-0.222-0.98-0.075c-0.317,0.148-0.534,0.452-0.571,0.801
	c-0.162,1.521-0.397,3.1-0.703,4.715c-0.562-0.747-1.136-1.492-1.712-2.201c-0.228-0.281-0.592-0.417-0.947-0.355
	c-0.357,0.062-0.652,0.312-0.772,0.652c-0.536,1.52-1.165,3.086-1.878,4.68c-0.333-1.038-0.658-1.971-0.983-2.816
	c-0.136-0.354-0.46-0.601-0.837-0.637c-0.38-0.035-0.743,0.144-0.944,0.464c-0.806,1.288-1.702,2.602-2.676,3.929
	c-0.028-1.082-0.089-2.088-0.184-3.034c-0.039-0.389-0.3-0.72-0.669-0.847c-0.107-0.037-0.217-0.055-0.326-0.055
	c-0.268,0-0.53,0.108-0.722,0.309c-0.905,0.945-1.878,1.899-2.908,2.853c0.18-0.996,0.309-1.935,0.39-2.83
	c0.035-0.389-0.16-0.763-0.499-0.957s-0.76-0.174-1.078,0.053c-0.902,0.644-1.866,1.295-2.883,1.948
	c0.269-0.857,0.487-1.684,0.66-2.491c0.079-0.371-0.058-0.755-0.355-0.991c-0.298-0.236-0.703-0.284-1.045-0.124
	c-0.984,0.458-2.023,0.913-3.106,1.359c0.321-0.789,0.602-1.562,0.84-2.312c0.109-0.344,0.025-0.72-0.221-0.983
	c-0.246-0.265-0.613-0.375-0.966-0.292c-1.203,0.289-2.457,0.55-3.747,0.779c0.448-0.788,0.847-1.527,1.205-2.233
	c0.158-0.311,0.143-0.682-0.042-0.979c-0.183-0.295-0.504-0.474-0.85-0.474c-0.002,0-0.005,0-0.008,0l-0.447,0.002
	c-1.316,0-2.676-0.048-4.062-0.144c0.641-0.663,1.261-1.319,1.848-1.969c0.238-0.264,0.318-0.633,0.212-0.971
	c-0.106-0.338-0.383-0.595-0.729-0.675c-1.555-0.359-3.174-0.811-4.834-1.347c0.968-0.489,1.807-0.936,2.565-1.363
	c0.323-0.183,0.519-0.528,0.508-0.899s-0.226-0.706-0.559-0.869c-1.249-0.613-2.527-1.3-3.822-2.052h16.152
	c0.494,3.876,3.806,6.885,7.814,6.885s7.321-3.009,7.814-6.885H80.7C81.24,72.594,81.781,73.271,82.317,73.969z M51.669,71.94
	h11.588c-0.477,2.77-2.89,4.885-5.794,4.885S52.146,74.71,51.669,71.94z M81.168,69.94H30.217h-0.746
	c0.38-10.668,6.83-20.254,16.649-24.611c0.293-0.13,0.506-0.393,0.572-0.706c0.067-0.313-0.021-0.64-0.235-0.878
	c-0.404-0.448-9.948-11.008-13.92-13.904c-3.146-2.292-4.675-4.746-4.675-7.503c0-4.602,3.744-8.346,8.347-8.346
	c1.949,0,3.846,0.688,5.279,1.881l33.469,33.188c0.024,0.024,0.05,0.047,0.076,0.068c6.375,5.143,10.138,12.682,10.424,20.811
	H81.168z"/>
<path d="M38.835,19.132c-0.552,0-1,0.447-1,1v9.734c0,0.553,0.448,1,1,1s1-0.447,1-1v-9.734
	C39.835,19.579,39.387,19.132,38.835,19.132z"/>
<path d="M41.684,21.98c-0.552,0-1,0.447-1,1v9.734c0,0.553,0.448,1,1,1s1-0.447,1-1V22.98C42.684,22.428,42.236,21.98,41.684,21.98z
	"/>
<path d="M44.533,24.83c-0.552,0-1,0.447-1,1v9.734c0,0.553,0.448,1,1,1s1-0.447,1-1V25.83C45.533,25.277,45.085,24.83,44.533,24.83z
	"/>
</svg>
