<?xml version="1.0" encoding="utf-8"?>
<!-- Generator: Adobe Illustrator 17.0.0, SVG Export Plug-In . SVG Version: 6.00 Build 0)  -->
<!DOCTYPE svg PUBLIC "-//W3C//DTD SVG 1.1//EN" "http://www.w3.org/Graphics/SVG/1.1/DTD/svg11.dtd">
<svg version="1.1" id="Capa_1" xmlns="http://www.w3.org/2000/svg" xmlns:xlink="http://www.w3.org/1999/xlink" x="0px" y="0px"
	 width="64px" height="64px" viewBox="0 0 64 64" enable-background="new 0 0 64 64" xml:space="preserve">
<g>
	<path d="M42.333,8.333V4.667c0-1.105-0.895-2-2-2H22.5c-1.105,0-2,0.895-2,2v3.667c0,1.105,0.895,2,2,2h17.833
		C41.438,10.333,42.333,9.438,42.333,8.333z"/>
	<path d="M44.016,36.599H33.979c-0.153-0.002-0.313-0.003-0.479-0.001c-0.097,0.001-0.192,0.001-0.292,0.001h-0.77
		c-0.885,0.012-1.521,0.132-1.521,1v8.068c0,0.821,0.568,1.525,1.379,1.833c-0.244,0.106-0.513,0.167-0.796,0.167
		c-1.105,0-2-0.895-2-2v-9.068H18.818c-0.552,0-1.002,0.448-0.967,0.999c0.489,7.769-0.002,21.599,13.566,21.599
		c13.568,0,13.078-13.83,13.566-21.599C45.017,37.047,44.568,36.599,44.016,36.599z"/>
	<rect x="26.667" y="11.5" width="9.5" height="22.833"/>
</g>
</svg>
