<?xml version="1.0" encoding="iso-8859-1"?>
<!-- Generator: Adobe Illustrator 17.1.0, SVG Export Plug-In . SVG Version: 6.00 Build 0)  -->
<!DOCTYPE svg PUBLIC "-//W3C//DTD SVG 1.1//EN" "http://www.w3.org/Graphics/SVG/1.1/DTD/svg11.dtd">
<svg version="1.1" id="Layer_1" xmlns="http://www.w3.org/2000/svg" xmlns:xlink="http://www.w3.org/1999/xlink" x="0px" y="0px"
	 viewBox="0 0 64 64" style="enable-background:new 0 0 64 64;" xml:space="preserve">
<path d="M40.5,20H40h-2.652c-0.07-0.251-0.195-0.609-0.395-1c-0.569-1.113-1.774-2.5-4.265-2.5c-2.49,0-3.741,1.39-4.346,2.5
	c-0.215,0.394-0.351,0.752-0.428,1H24.5C18.977,20,14,23.977,14,29.5V31h36v-1.5C50,23.977,46.023,20,40.5,20z M28.958,20
	c0.105-0.281,0.275-0.641,0.538-1c0.552-0.753,1.519-1.5,3.191-1.5c1.659,0,2.595,0.749,3.119,1.5c0.251,0.361,0.409,0.721,0.504,1
	H28.958z"/>
<path d="M14,34.5C14,40.023,18.977,45,24.5,45h3.377h2.214h4.193h2.214H40.5c5.523,0,9.5-4.977,9.5-10.5V32H14V34.5z"/>
<path d="M19.562,58.993c0,1.794,1.454,3.248,3.248,3.248c1.794,0,3.248-1.454,3.248-3.248c0-1.089-0.541-2.047-1.363-2.636
	l3.38-7.114c0.974,0.319,2.187,0.57,3.613,0.57c1.693,0,3.275-0.351,4.527-0.749l5.757,12.115c0.171,0.36,0.53,0.571,0.904,0.571
	c0.144,0,0.29-0.031,0.429-0.097c0.499-0.237,0.711-0.834,0.474-1.332l-5.689-11.973c0.497-0.223,0.802-0.39,0.842-0.412
	c0.241-0.134,0.327-0.438,0.193-0.68c-0.134-0.241-0.44-0.327-0.68-0.193c-0.009,0.005-0.298,0.162-0.786,0.379L36.973,46h-2.214
	l1.02,2.146c-1.155,0.358-2.585,0.667-4.091,0.667c-1.244,0-2.307-0.215-3.176-0.489L29.616,46h-2.214l-0.73,1.536
	c-0.418-0.237-0.665-0.421-0.672-0.426c-0.213-0.17-0.529-0.137-0.702,0.078c-0.172,0.215-0.139,0.529,0.076,0.702
	c0.033,0.027,0.343,0.263,0.866,0.556l-3.471,7.304C20.995,55.772,19.562,57.213,19.562,58.993z M22.81,57.495
	c0.441,0,0.833,0.194,1.107,0.497c0.24,0.266,0.39,0.614,0.39,1c0,0.827-0.671,1.498-1.498,1.498c-0.056,0-0.109-0.01-0.164-0.017
	c-0.749-0.083-1.334-0.71-1.334-1.481c0-0.077,0.011-0.151,0.023-0.225c0.045-0.297,0.176-0.564,0.369-0.777
	C21.979,57.688,22.37,57.495,22.81,57.495z"/>
<path d="M28.125,12.406c0,1.375,1.043,2.078,1.596,2.257c0.051,0.017,0.103,0.024,0.154,0.024c0.209,0,0.402-0.133,0.473-0.342
	c0.087-0.26-0.054-0.543-0.313-0.632c-0.093-0.032-0.909-0.341-0.909-1.307c0-0.207,0.218-0.5,0.45-0.81
	c0.356-0.478,0.8-1.072,0.8-1.846c0-1.391-1.22-2.146-1.272-2.178c-0.235-0.142-0.539-0.067-0.684,0.167
	c-0.144,0.234-0.07,0.542,0.163,0.687c0.008,0.005,0.793,0.503,0.793,1.324c0,0.442-0.292,0.833-0.602,1.248
	C28.455,11.425,28.125,11.867,28.125,12.406z"/>
<path d="M31.125,12.406c0,1.375,1.043,2.078,1.596,2.257c0.051,0.017,0.103,0.024,0.154,0.024c0.209,0,0.402-0.133,0.473-0.342
	c0.087-0.26-0.054-0.543-0.313-0.632c-0.093-0.032-0.909-0.341-0.909-1.307c0-0.207,0.218-0.5,0.45-0.81
	c0.356-0.478,0.8-1.072,0.8-1.846c0-1.391-1.22-2.146-1.272-2.178c-0.234-0.142-0.54-0.067-0.684,0.167
	c-0.144,0.234-0.07,0.542,0.163,0.687c0.008,0.005,0.793,0.503,0.793,1.324c0,0.442-0.292,0.833-0.602,1.248
	C31.455,11.425,31.125,11.867,31.125,12.406z"/>
<path d="M34.125,12.406c0,1.375,1.043,2.078,1.596,2.257c0.051,0.017,0.103,0.024,0.154,0.024c0.209,0,0.402-0.133,0.473-0.342
	c0.087-0.26-0.054-0.543-0.313-0.632c-0.093-0.032-0.909-0.341-0.909-1.307c0-0.207,0.218-0.5,0.45-0.81
	c0.356-0.478,0.8-1.072,0.8-1.846c0-1.391-1.22-2.146-1.272-2.178c-0.235-0.142-0.54-0.067-0.684,0.167
	c-0.144,0.234-0.07,0.542,0.163,0.687c0.008,0.005,0.793,0.503,0.793,1.324c0,0.442-0.292,0.833-0.602,1.248
	C34.455,11.425,34.125,11.867,34.125,12.406z"/>
</svg>
