<?xml version="1.0" encoding="UTF-8" standalone="no"?>
<svg
   xmlns:dc="http://purl.org/dc/elements/1.1/"
   xmlns:cc="http://web.resource.org/cc/"
   xmlns:rdf="http://www.w3.org/1999/02/22-rdf-syntax-ns#"
   xmlns:svg="http://www.w3.org/2000/svg"
   xmlns="http://www.w3.org/2000/svg"
   xmlns:xlink="http://www.w3.org/1999/xlink"
   xmlns:sodipodi="http://sodipodi.sourceforge.net/DTD/sodipodi-0.dtd"
   xmlns:inkscape="http://www.inkscape.org/namespaces/inkscape"
   version="1.0"
   viewBox="0 0 50 50"
   id="question"
   sodipodi:version="0.32"
   inkscape:version="0.44"
   width="1000"
   height="1000"
   sodipodi:docname="Circle-question.svg"
   sodipodi:docbase="C:\Documents and Settings\David Nelson\Archives\Svg">
  <metadata
     id="metadata1942">
    <rdf:RDF>
      <cc:Work
         rdf:about="">
        <dc:format>image/svg+xml</dc:format>
        <dc:type
           rdf:resource="http://purl.org/dc/dcmitype/StillImage" />
      </cc:Work>
    </rdf:RDF>
  </metadata>
  <sodipodi:namedview
     inkscape:window-height="573"
     inkscape:window-width="853"
     inkscape:pageshadow="2"
     inkscape:pageopacity="0.0"
     guidetolerance="10.0"
     gridtolerance="10.0"
     objecttolerance="10.0"
     borderopacity="1.0"
     bordercolor="#666666"
     pagecolor="#ffffff"
     id="base"
     inkscape:zoom="0.377"
     inkscape:cx="500"
     inkscape:cy="500"
     inkscape:window-x="64"
     inkscape:window-y="29"
     inkscape:current-layer="question"
     width="1000px"
     height="1000px" />
  <defs
     id="defs5">
    <linearGradient
       id="linearGradient16151">
      <stop
         style="stop-color:#a08c00;stop-opacity:1;"
         offset="0"
         id="stop16153" />
      <stop
         style="stop-color:#a08c00;stop-opacity:1;"
         offset="0.78571427"
         id="stop16161" />
      <stop
         style="stop-color:#a08c00;stop-opacity:0;"
         offset="1"
         id="stop16155" />
    </linearGradient>
    <linearGradient
       id="linearGradient15258">
      <stop
         style="stop-color:#ffe000;stop-opacity:1;"
         offset="0"
         id="stop15260" />
      <stop
         style="stop-color:#302a00;stop-opacity:1;"
         offset="1"
         id="stop15262" />
    </linearGradient>
    <linearGradient
       inkscape:collect="always"
       xlink:href="#linearGradient15258"
       id="linearGradient1922"
       gradientUnits="userSpaceOnUse"
       x1="9.94695"
       y1="6.3660479"
       x2="38.992043"
       y2="44.297081" />
    <radialGradient
       inkscape:collect="always"
       xlink:href="#linearGradient16151"
       id="radialGradient1924"
       gradientUnits="userSpaceOnUse"
       cx="24.933687"
       cy="25.066313"
       fx="24.933687"
       fy="25.066313"
       r="23" />
  </defs>
  <path
     d="M 49.634373,24.99999 C 49.634373,38.530961 38.665353,49.499981 25.134382,49.499981 C 11.603411,49.499981 0.63439133,38.530961 0.63439133,24.99999 C 0.63439133,11.469019 11.603411,0.49999979 25.134382,0.49999979 C 38.665353,0.49999979 49.634373,11.469019 49.634373,24.99999 z "
     style="fill:url(#linearGradient1922);fill-opacity:1;stroke:black;stroke-width:0.99999958;stroke-linecap:round;stroke-linejoin:round;stroke-miterlimit:4;stroke-dasharray:none;stroke-opacity:1"
     id="path15256"
     transform="translate(-0.134407,-1.537613e-5)" />
  <path
     d="M 49.499981,24.99999 C 49.499981,38.530961 38.530961,49.499981 24.99999,49.499981 C 11.469019,49.499981 0.49999979,38.530961 0.49999979,24.99999 C 0.49999979,11.469019 11.469019,0.49999979 24.99999,0.49999979 C 38.530961,0.49999979 49.499981,11.469019 49.499981,24.99999 z "
     style="fill:url(#radialGradient1924);fill-opacity:1.0;stroke:black;stroke-width:0.99999958;stroke-linecap:round;stroke-linejoin:round;stroke-miterlimit:4;stroke-dasharray:none;stroke-opacity:1"
     id="path1891"
     transform="translate(-1.502943e-5,-1.537613e-5)" />
  <path
     transform="matrix(0.77842,0,0,0.780512,34.01543,13.89918)"
     style="font-size:54.22900009px;font-style:normal;font-variant:normal;font-weight:bold;font-stretch:normal;text-align:start;line-height:100%;writing-mode:lr-tb;text-anchor:start;fill:white;fill-opacity:1;stroke:none;stroke-width:1px;stroke-linecap:butt;stroke-linejoin:miter;stroke-opacity:1;font-family:CentSchbook BT"
     d="M -11.581707,21.861679 L -14.123691,21.861679 L -14.123691,20.51125 C -14.123702,18.640082 -13.973655,17.179325 -13.673548,16.128975 C -13.373465,15.07866 -12.870364,13.988609 -12.164245,12.858818 C -11.987731,12.576396 -11.722942,12.170386 -11.369875,11.640784 C -9.1986125,8.3397601 -8.1129744,5.4623779 -8.112957,3.0086284 C -8.1129744,0.90799375 -8.5940092,-0.72046336 -9.5560627,-1.8767478 C -10.518148,-3.0329607 -11.872989,-3.6110851 -13.62059,-3.6111226 C -14.679761,-3.6110851 -15.597699,-3.4169059 -16.374406,-3.0285845 C -17.151132,-2.6401892 -17.53949,-2.2076993 -17.539482,-1.7311133 C -17.53949,-1.5192459 -17.049629,-0.96318732 -16.069898,-0.062936062 C -15.090185,0.83738314 -14.600324,1.8788896 -14.600313,3.0615864 C -14.600324,4.3855661 -15.001922,5.4270726 -15.805108,6.1861089 C -16.608313,6.9452006 -17.707191,7.3247326 -19.101744,7.324706 C -20.584573,7.3247326 -21.78054,6.8657637 -22.689649,5.9477978 C -23.598763,5.0298879 -24.053319,3.8295076 -24.053317,2.3466533 C -24.053319,-0.054075764 -22.901483,-2.092957 -20.597807,-3.7699966 C -18.294141,-5.4469608 -15.429999,-6.2854618 -12.005371,-6.285502 C -7.8923163,-6.2854618 -4.714839,-5.451374 -2.4729292,-3.7832361 C -0.23106547,-2.1150228 0.88987791,0.23719299 0.88990431,3.2734184 C 0.88987791,6.7157161 -1.7227145,10.290378 -6.9478809,13.997415 L -7.3185869,14.262205 C -9.1897862,15.586174 -10.368101,16.689464 -10.853534,17.572081 C -11.338997,18.454729 -11.58172,19.602152 -11.581707,21.014351 L -11.581707,21.861679 z M -12.879178,24.536059 C -11.484631,24.536068 -10.284251,25.039169 -9.2780332,26.045362 C -8.2718483,27.051571 -7.7687477,28.243125 -7.76873,29.620027 C -7.7687477,31.032244 -8.2674351,32.237037 -9.2647937,33.234411 C -10.262185,34.231787 -11.466978,34.730474 -12.879178,34.730475 C -14.291403,34.730474 -15.491783,34.227374 -16.480322,33.221172 C -17.46888,32.214971 -17.963154,31.014591 -17.963147,29.620027 C -17.963154,28.225472 -17.464467,27.029505 -16.467083,26.032122 C -15.469717,25.034755 -14.27375,24.536068 -12.879178,24.536059 L -12.879178,24.536059 z "
     id="text1944" />
</svg>
